<svg width="450" height="106" viewBox="0 0 450 106" fill="none" xmlns="http://www.w3.org/2000/svg">
<path d="M450 0H0V3.68863C0.252078 3.66652 0.508242 3.65517 0.767748 3.65517C4.58389 3.65517 7.67748 6.10989 7.67748 9.13793C7.67748 12.166 4.58389 14.6207 0.767748 14.6207C0.508242 14.6207 0.252078 14.6093 0 14.5872V18.3093C0.252078 18.2872 0.508242 18.2759 0.767748 18.2759C4.58389 18.2759 7.67748 20.7306 7.67748 23.7586C7.67748 26.7867 4.58389 29.2414 0.767748 29.2414C0.508242 29.2414 0.252078 29.23 0 29.2079V32.8966C0.16855 32.8966 0.336715 32.8979 0.50448 32.9005C0.591831 32.8979 0.679597 32.8966 0.767748 32.8966C1.04999 32.8966 1.32827 32.91 1.60164 32.9361C14.8479 33.5917 25.3357 42.324 25.3357 53C25.3357 63.676 14.8479 72.4083 1.60164 73.0639C1.32827 73.09 1.04999 73.1034 0.767748 73.1034C0.679605 73.1034 0.591848 73.1021 0.504506 73.0995C0.336732 73.1021 0.168558 73.1034 0 73.1034V76.7921C0.252078 76.77 0.508242 76.7586 0.767748 76.7586C4.58389 76.7586 7.67748 79.2133 7.67748 82.2414C7.67748 85.2694 4.58389 87.7241 0.767748 87.7241C0.508242 87.7241 0.252078 87.7128 0 87.6907V91.4128C0.252078 91.3907 0.508242 91.3793 0.767748 91.3793C4.58389 91.3793 7.67748 93.834 7.67748 96.8621C7.67748 99.8901 4.58389 102.345 0.767748 102.345C0.508242 102.345 0.252078 102.333 0 102.311V106H450V102.345C446.184 102.345 443.09 99.8901 443.09 96.8621C443.09 93.834 446.184 91.3793 450 91.3793V87.7241C446.184 87.7241 443.09 85.2694 443.09 82.2414C443.09 79.2133 446.184 76.7586 450 76.7586V73.1034C446.184 73.1034 443.09 70.6487 443.09 67.6207C443.09 64.5926 446.184 62.1379 450 62.1379V58.4828C446.184 58.4828 443.09 56.028 443.09 53C443.09 49.972 446.184 47.5172 450 47.5172V43.8621C446.184 43.8621 443.09 41.4074 443.09 38.3793C443.09 35.3513 446.184 32.8966 450 32.8966V29.2414C446.184 29.2414 443.09 26.7867 443.09 23.7586C443.09 20.7306 446.184 18.2759 450 18.2759V14.6207C446.184 14.6207 443.09 12.166 443.09 9.13793C443.09 6.10989 446.184 3.65517 450 3.65517V0Z" fill="#E5E4CF"/>
<mask id="mask0_3016_42461" style="mask-type:alpha" maskUnits="userSpaceOnUse" x="0" y="0" width="450" height="106">
<path d="M450 0H0V3.68863C0.252078 3.66652 0.508242 3.65517 0.767748 3.65517C4.58389 3.65517 7.67748 6.10989 7.67748 9.13793C7.67748 12.166 4.58389 14.6207 0.767748 14.6207C0.508242 14.6207 0.252078 14.6093 0 14.5872V18.3093C0.252078 18.2872 0.508242 18.2759 0.767748 18.2759C4.58389 18.2759 7.67748 20.7306 7.67748 23.7586C7.67748 26.7867 4.58389 29.2414 0.767748 29.2414C0.508242 29.2414 0.252078 29.23 0 29.2079V32.8966C0.16855 32.8966 0.336715 32.8979 0.50448 32.9005C0.591831 32.8979 0.679597 32.8966 0.767748 32.8966C1.04999 32.8966 1.32827 32.91 1.60164 32.9361C14.8479 33.5917 25.3357 42.324 25.3357 53C25.3357 63.676 14.8479 72.4083 1.60164 73.0639C1.32827 73.09 1.04999 73.1034 0.767748 73.1034C0.679605 73.1034 0.591848 73.1021 0.504506 73.0995C0.336732 73.1021 0.168558 73.1034 0 73.1034V76.7921C0.252078 76.77 0.508242 76.7586 0.767748 76.7586C4.58389 76.7586 7.67748 79.2133 7.67748 82.2414C7.67748 85.2694 4.58389 87.7241 0.767748 87.7241C0.508242 87.7241 0.252078 87.7128 0 87.6907V91.4128C0.252078 91.3907 0.508242 91.3793 0.767748 91.3793C4.58389 91.3793 7.67748 93.834 7.67748 96.8621C7.67748 99.8901 4.58389 102.345 0.767748 102.345C0.508242 102.345 0.252078 102.333 0 102.311V106H450V102.345C446.184 102.345 443.09 99.8901 443.09 96.8621C443.09 93.834 446.184 91.3793 450 91.3793V87.7241C446.184 87.7241 443.09 85.2694 443.09 82.2414C443.09 79.2133 446.184 76.7586 450 76.7586V73.1034C446.184 73.1034 443.09 70.6487 443.09 67.6207C443.09 64.5926 446.184 62.1379 450 62.1379V58.4828C446.184 58.4828 443.09 56.028 443.09 53C443.09 49.972 446.184 47.5172 450 47.5172V43.8621C446.184 43.8621 443.09 41.4074 443.09 38.3793C443.09 35.3513 446.184 32.8966 450 32.8966V29.2414C446.184 29.2414 443.09 26.7867 443.09 23.7586C443.09 20.7306 446.184 18.2759 450 18.2759V14.6207C446.184 14.6207 443.09 12.166 443.09 9.13793C443.09 6.10989 446.184 3.65517 450 3.65517V0Z" fill="#E5E4CF"/>
</mask>
<g mask="url(#mask0_3016_42461)">
<rect width="117.435" height="106" fill="#8F8E93"/>
</g>
</svg>
