<svg xmlns="http://www.w3.org/2000/svg" width="68" height="69" viewBox="0 0 68 69" fill="none">
  <mask id="mask0_4566_2974" style="mask-type:alpha" maskUnits="userSpaceOnUse" x="0" y="0" width="68" height="69">
    <rect y="0.733887" width="68" height="68" fill="#F5F5F7"/>
  </mask>
  <g mask="url(#mask0_4566_2974)">
    <path d="M7.08496 60.3142V51.8475C7.08496 51.3932 7.15131 50.958 7.284 50.542C7.4167 50.1265 7.62471 49.7477 7.90804 49.4058L32.0346 16.7956L29.0816 12.8289C28.929 12.6476 28.8381 12.4587 28.8088 12.2622C28.78 12.0663 28.773 11.8701 28.7876 11.6736C28.8018 11.4777 28.8662 11.2888 28.981 11.107C29.0952 10.9256 29.2341 10.7587 29.3975 10.6062C29.7606 10.3191 30.153 10.2182 30.5747 10.3037C30.9959 10.3892 31.3501 10.6043 31.6372 10.949L34.0016 14.1259L36.3661 10.949C36.6532 10.6043 37.0121 10.3892 37.4427 10.3037C37.8729 10.2182 38.2696 10.3191 38.6327 10.6062C38.9779 10.9112 39.1888 11.2788 39.2653 11.709C39.3413 12.1397 39.2358 12.5276 38.9486 12.8728L36.0395 16.7956L60.0952 49.4058C60.3786 49.7477 60.5866 50.1265 60.7193 50.542C60.852 50.958 60.9183 51.3932 60.9183 51.8475V60.3142C60.9183 60.9101 60.7266 61.3996 60.3432 61.7826C59.9602 62.166 59.4707 62.3577 58.8748 62.3577H9.1285C8.53256 62.3577 8.0431 62.166 7.66013 61.7826C7.27668 61.3996 7.08496 60.9101 7.08496 60.3142ZM34.0016 19.5361L10.3001 51.5471V59.1433H20.4618L32.3831 42.4861C32.7902 41.9086 33.3297 41.6198 34.0016 41.6198C34.6736 41.6198 35.2131 41.9086 35.6202 42.4861L47.5691 59.1433H57.7032V51.5471L34.0016 19.5361ZM24.4228 59.1433H43.5804L34.0016 45.7119L24.4228 59.1433ZM35.7179 42.4861L47.5691 59.1433L35.6202 42.4861C35.2131 41.9086 34.6736 41.6198 34.0016 41.6198C33.3297 41.6198 32.7902 41.9086 32.3831 42.4861C32.7902 41.9086 33.3415 41.6198 34.0371 41.6198C34.7326 41.6198 35.2929 41.9086 35.7179 42.4861Z" fill="#F5F5F7"/>
  </g>
</svg>