<svg xmlns="http://www.w3.org/2000/svg" width="72" height="73" viewBox="0 0 72 73" fill="none">
  <mask id="mask0_4569_3028" style="mask-type:alpha" maskUnits="userSpaceOnUse" x="-1" y="0" width="73" height="73">
    <rect x="-0.00219727" y="0.733887" width="72" height="72" fill="#F5F5F7"/>
  </mask>
  <g mask="url(#mask0_4569_3028)">
    <path d="M48.5357 51.0291C50.5667 51.0291 52.2907 51.7376 53.7077 53.1546C55.1252 54.5721 55.8339 56.2961 55.8339 58.3266C55.8339 60.3576 55.1252 62.0816 53.7077 63.4986C52.2907 64.9161 50.5667 65.6249 48.5357 65.6249C46.8897 65.6249 45.4042 65.1211 44.0791 64.1136C42.7541 63.1056 41.9186 61.7844 41.5726 60.1499H19.0494L16.0606 64.7886C15.7876 65.2036 15.4311 65.4669 14.9911 65.5784C14.5506 65.6899 14.1476 65.6189 13.7821 65.3654C13.3476 65.0614 13.0669 64.6891 12.9399 64.2486C12.8129 63.8086 12.8859 63.3809 13.1589 62.9654L26.9536 41.9189C24.0381 40.8804 21.4871 39.2612 19.3006 37.0612C17.1141 34.8617 15.6324 32.2579 14.8554 29.2499C14.6474 28.5499 14.7714 27.9154 15.2274 27.3464C15.6834 26.7769 16.2709 26.4922 16.9899 26.4922H49.1589C49.8589 26.4922 50.4244 26.7769 50.8554 27.3464C51.2859 27.9154 51.3974 28.5499 51.1899 29.2499C50.4129 32.2269 48.9407 34.8077 46.7732 36.9922C44.6062 39.1767 42.0801 40.7939 39.1951 41.8439L44.4684 50.1231C43.9414 50.4157 43.4347 50.7339 42.9482 51.0779C42.4617 51.4219 42.0569 51.8016 41.7339 52.2171L35.7166 42.6982C35.4166 42.7982 35.0214 42.8482 34.5309 42.8482H31.6636C31.1926 42.8482 30.7916 42.7982 30.4606 42.6982L21.2994 56.7464H41.5726C41.9186 55.0614 42.7416 53.6874 44.0417 52.6244C45.3417 51.5609 46.8397 51.0291 48.5357 51.0291ZM48.5357 62.2214C49.6437 62.2214 50.5697 61.8491 51.3137 61.1046C52.0582 60.3606 52.4304 59.4346 52.4304 58.3266C52.4304 57.2381 52.0582 56.3171 51.3137 55.5636C50.5697 54.8096 49.6437 54.4326 48.5357 54.4326C47.4472 54.4326 46.5262 54.8096 45.7727 55.5636C45.0187 56.3171 44.6416 57.2381 44.6416 58.3266C44.6416 59.4346 45.0187 60.3606 45.7727 61.1046C46.5262 61.8491 47.4472 62.2214 48.5357 62.2214ZM32.9994 39.4732C36.2109 39.4732 39.1254 38.6029 41.7429 36.8624C44.3599 35.1219 46.2992 32.7999 47.5607 29.8964H18.5304C19.7304 32.7999 21.6389 35.1219 24.2559 36.8624C26.8734 38.6029 29.7879 39.4732 32.9994 39.4732ZM24.9916 15.1732C24.0416 13.9232 23.3964 12.7884 23.0559 11.7689C22.7159 10.7499 22.6149 9.60593 22.7529 8.33693C22.8029 8.08293 22.9116 7.86743 23.0791 7.69043C23.2466 7.51343 23.4571 7.42493 23.7106 7.42493C23.9531 7.42493 24.1456 7.52118 24.2881 7.71368C24.4301 7.90568 24.5011 8.12293 24.5011 8.36543C24.4321 9.61543 24.5581 10.6924 24.8791 11.5964C25.2001 12.4999 25.8011 13.5229 26.6821 14.6654C27.5706 15.8844 28.1926 17.0064 28.5481 18.0314C28.9041 19.0564 29.0281 20.2287 28.9201 21.5482C28.9201 21.8022 28.8366 22.0174 28.6696 22.1939C28.5021 22.3709 28.2819 22.4594 28.0089 22.4594C27.7859 22.4594 27.5984 22.3634 27.4464 22.1714C27.2944 21.9789 27.2434 21.7614 27.2934 21.5189C27.3934 20.4309 27.2704 19.4069 26.9244 18.4469C26.5784 17.4874 25.9341 16.3962 24.9916 15.1732ZM31.2459 15.1732C30.2959 13.9537 29.6429 12.8344 29.2869 11.8154C28.9314 10.7964 28.8226 9.63693 28.9606 8.33693C29.0106 8.08293 29.1194 7.86743 29.2869 7.69043C29.4544 7.51343 29.6649 7.42493 29.9184 7.42493C30.1609 7.42493 30.3534 7.52118 30.4959 7.71368C30.6379 7.90568 30.6936 8.12293 30.6631 8.36543C30.5436 9.42293 30.6569 10.4317 31.0029 11.3917C31.3494 12.3512 31.9784 13.4424 32.8899 14.6654C33.7784 15.8539 34.4004 16.9732 34.7559 18.0232C35.1119 19.0732 35.2456 20.2384 35.1571 21.5189C35.1376 21.7924 35.0444 22.0174 34.8774 22.1939C34.7099 22.3709 34.4896 22.4594 34.2166 22.4594C33.9936 22.4594 33.8109 22.3709 33.6684 22.1939C33.5264 22.0174 33.4554 21.7924 33.4554 21.5189C33.5244 20.1769 33.4011 19.0617 33.0856 18.1732C32.7706 17.2847 32.1574 16.2847 31.2459 15.1732ZM37.5106 15.1732C36.5301 13.8922 35.8619 12.7422 35.5059 11.7232C35.1504 10.7037 35.0419 9.57493 35.1804 8.33693C35.2304 8.08293 35.3389 7.86743 35.5059 7.69043C35.6734 7.51343 35.8841 7.42493 36.1381 7.42493C36.3801 7.42493 36.5724 7.52118 36.7149 7.71368C36.8574 7.90568 36.9131 8.12293 36.8821 8.36543C36.7631 9.42293 36.8766 10.4317 37.2226 11.3917C37.5686 12.3512 38.2129 13.4424 39.1554 14.6654C40.0439 15.8344 40.6659 16.9439 41.0214 17.9939C41.3774 19.0439 41.4861 20.2189 41.3476 21.5189C41.3476 21.7924 41.2592 22.0174 41.0822 22.1939C40.9052 22.3709 40.6897 22.4594 40.4357 22.4594C40.2127 22.4594 40.0252 22.3634 39.8732 22.1714C39.7217 21.9789 39.6459 21.7462 39.6459 21.4732C39.7649 20.1922 39.6591 19.0999 39.3286 18.1964C38.9976 17.2924 38.3916 16.2847 37.5106 15.1732Z" fill="#F5F5F7"/>
  </g>
</svg>