<svg xmlns="http://www.w3.org/2000/svg" width="24" height="24" viewBox="0 0 24 24" fill="none">
  <mask id="mask0_6042_1485" style="mask-type:alpha" maskUnits="userSpaceOnUse" x="0" y="0" width="24" height="24">
    <rect width="24" height="24" fill="#F5F5F7"/>
  </mask>
  <g mask="url(#mask0_6042_1485)">
    <path d="M12.0003 16.6538C12.2129 16.6538 12.391 16.5818 12.5345 16.438C12.6782 16.2943 12.75 16.1162 12.75 15.9035C12.75 15.6908 12.6781 15.5128 12.5343 15.3693C12.3904 15.2256 12.2122 15.1538 11.9998 15.1538C11.7871 15.1538 11.609 15.2257 11.4655 15.3695C11.3218 15.5133 11.25 15.6916 11.25 15.9043C11.25 16.1167 11.3219 16.2948 11.4658 16.4385C11.6096 16.582 11.7878 16.6538 12.0003 16.6538ZM12.0003 12.75C12.2129 12.75 12.391 12.6781 12.5345 12.5343C12.6782 12.3904 12.75 12.2122 12.75 11.9997C12.75 11.7871 12.6781 11.609 12.5343 11.4655C12.3904 11.3218 12.2122 11.25 11.9998 11.25C11.7871 11.25 11.609 11.3219 11.4655 11.4658C11.3218 11.6096 11.25 11.7878 11.25 12.0003C11.25 12.2129 11.3219 12.391 11.4658 12.5345C11.6096 12.6782 11.7878 12.75 12.0003 12.75ZM12.0003 8.84625C12.2129 8.84625 12.391 8.77433 12.5345 8.6305C12.6782 8.48667 12.75 8.30842 12.75 8.09575C12.75 7.88325 12.6781 7.70517 12.5343 7.5615C12.3904 7.418 12.2122 7.34625 11.9998 7.34625C11.7871 7.34625 11.609 7.41817 11.4655 7.562C11.3218 7.70567 11.25 7.88383 11.25 8.0965C11.25 8.30917 11.3219 8.48725 11.4658 8.63075C11.6096 8.77442 11.7878 8.84625 12.0003 8.84625ZM19.6923 19.5H4.30775C3.81058 19.5 3.385 19.323 3.031 18.969C2.677 18.615 2.5 18.1894 2.5 17.6923V14.404C3.06933 14.295 3.545 14.0157 3.927 13.5662C4.309 13.1169 4.5 12.5948 4.5 12C4.5 11.4052 4.309 10.8831 3.927 10.4337C3.545 9.98425 3.06933 9.705 2.5 9.596V6.30775C2.5 5.81058 2.677 5.385 3.031 5.031C3.385 4.677 3.81058 4.5 4.30775 4.5H19.6923C20.1894 4.5 20.615 4.677 20.969 5.031C21.323 5.385 21.5 5.81058 21.5 6.30775V9.596C20.9307 9.705 20.455 9.98425 20.073 10.4337C19.691 10.8831 19.5 11.4052 19.5 12C19.5 12.5948 19.691 13.1169 20.073 13.5662C20.455 14.0157 20.9307 14.295 21.5 14.404V17.6923C21.5 18.1894 21.323 18.615 20.969 18.969C20.615 19.323 20.1894 19.5 19.6923 19.5ZM19.6923 18C19.7821 18 19.8558 17.9712 19.9135 17.9135C19.9712 17.8558 20 17.7821 20 17.6923V15.45C19.3833 15.0833 18.8958 14.5958 18.5375 13.9875C18.1792 13.3792 18 12.7167 18 12C18 11.2833 18.1792 10.6208 18.5375 10.0125C18.8958 9.40417 19.3833 8.91667 20 8.55V6.30775C20 6.21792 19.9712 6.14417 19.9135 6.0865C19.8558 6.02883 19.7821 6 19.6923 6H4.30775C4.21792 6 4.14417 6.02883 4.0865 6.0865C4.02883 6.14417 4 6.21792 4 6.30775V8.55C4.61667 8.91667 5.10417 9.40417 5.4625 10.0125C5.82083 10.6208 6 11.2833 6 12C6 12.7167 5.82083 13.3792 5.4625 13.9875C5.10417 14.5958 4.61667 15.0833 4 15.45V17.6923C4 17.7821 4.02883 17.8558 4.0865 17.9135C4.14417 17.9712 4.21792 18 4.30775 18H19.6923Z" fill="#F5F5F7"/>
  </g>
</svg>