<svg xmlns="http://www.w3.org/2000/svg" width="68" height="69" viewBox="0 0 68 69" fill="none">
  <mask id="mask0_4566_2936" style="mask-type:alpha" maskUnits="userSpaceOnUse" x="0" y="0" width="69" height="69">
    <rect x="0.00219727" y="0.733887" width="68" height="68" fill="#F5F5F7"/>
  </mask>
  <g mask="url(#mask0_4566_2936)">
    <path d="M14.0056 61.6504C12.8916 61.6504 11.932 61.2478 11.1269 60.4427C10.3218 59.6375 9.91919 58.678 9.91919 57.564V22.7197C9.91919 21.6052 10.3218 20.6454 11.1269 19.8403C11.932 19.0352 12.8916 18.6326 14.0056 18.6326H21.7703C21.7703 15.2581 22.9244 12.3759 25.2327 9.98597C27.5413 7.59558 30.3829 6.40039 33.7574 6.40039C37.2198 6.40039 40.165 7.58095 42.5932 9.94206C45.0209 12.3032 46.2347 15.2 46.2347 18.6326H53.9995C55.1135 18.6326 56.073 19.0352 56.8782 19.8403C57.6833 20.6454 58.0859 21.6052 58.0859 22.7197V57.564C58.0859 58.678 57.6833 59.6375 56.8782 60.4427C56.073 61.2478 55.1135 61.6504 53.9995 61.6504H14.0056ZM14.0056 58.4353H53.9995C54.2172 58.4353 54.4169 58.3446 54.5987 58.1633C54.7801 57.9815 54.8707 57.7817 54.8707 57.564V22.7197C54.8707 22.5015 54.7801 22.3015 54.5987 22.1197C54.4169 21.9384 54.2172 21.8477 53.9995 21.8477H14.0056C13.7879 21.8477 13.5881 21.9384 13.4063 22.1197C13.225 22.3015 13.1343 22.5015 13.1343 22.7197V57.564C13.1343 57.7817 13.225 57.9815 13.4063 58.1633C13.5881 58.3446 13.7879 58.4353 14.0056 58.4353ZM34.0025 37.4311C37.4063 37.4311 40.3414 36.1979 42.8078 33.7314C45.2742 31.265 46.5074 28.3299 46.5074 24.9261H43.2923C43.2923 27.4691 42.3741 29.6531 40.5376 31.4782C38.7011 33.3034 36.5216 34.2159 33.999 34.2159C31.4768 34.2159 29.303 33.3034 27.4774 31.4782C25.6522 29.6531 24.7397 27.4691 24.7397 24.9261H21.5252C21.5252 28.3299 22.754 31.265 25.2114 33.7314C27.6684 36.1979 30.5987 37.4311 34.0025 37.4311ZM24.9847 18.6326H43.0203C43.0203 16.1081 42.1484 13.9741 40.4044 12.2307C38.661 10.4872 36.527 9.61552 34.0025 9.61552C31.478 9.61552 29.3441 10.4872 27.6006 12.2307C25.8567 13.9741 24.9847 16.1081 24.9847 18.6326Z" fill="#F5F5F7"/>
  </g>
</svg>