<svg xmlns="http://www.w3.org/2000/svg" width="19" height="16" viewBox="0 0 19 16" fill="none">
  <path d="M6 7.81383L8.75619 10.5404L14 5.34067L13.1951 4.54043L8.75619 8.93994L6.80492 7L6 7.81383Z" fill="#F5F5F7"/>
  <path fill-rule="evenodd" clip-rule="evenodd" d="M1.80775 15.5H17.1923C17.6894 15.5 18.115 15.323 18.469 14.969C18.823 14.615 19 14.1894 19 13.6923V10.404C18.4307 10.295 17.955 10.0157 17.573 9.56625C17.191 9.11692 17 8.59483 17 8C17 7.40517 17.191 6.88308 17.573 6.43375C17.955 5.98425 18.4307 5.705 19 5.596V2.30775C19 1.81058 18.823 1.385 18.469 1.031C18.115 0.677 17.6894 0.5 17.1923 0.5H1.80775C1.31058 0.5 0.885 0.677 0.531 1.031C0.177 1.385 0 1.81058 0 2.30775V5.596C0.569333 5.705 1.045 5.98425 1.427 6.43375C1.809 6.88308 2 7.40517 2 8C2 8.59483 1.809 9.11692 1.427 9.56625C1.045 10.0157 0.569333 10.295 0 10.404V13.6923C0 14.1894 0.177 14.615 0.531 14.969C0.885 15.323 1.31058 15.5 1.80775 15.5ZM17.4135 13.9135C17.3558 13.9712 17.2821 14 17.1923 14H1.80775C1.71792 14 1.64417 13.9712 1.5865 13.9135C1.52883 13.8558 1.5 13.7821 1.5 13.6923V11.45C2.11667 11.0833 2.60417 10.5958 2.9625 9.9875C3.32083 9.37917 3.5 8.71667 3.5 8C3.5 7.28333 3.32083 6.62083 2.9625 6.0125C2.60417 5.40417 2.11667 4.91667 1.5 4.55V2.30775C1.5 2.21792 1.52883 2.14417 1.5865 2.0865C1.64417 2.02883 1.71792 2 1.80775 2H17.1923C17.2821 2 17.3558 2.02883 17.4135 2.0865C17.4712 2.14417 17.5 2.21792 17.5 2.30775V4.55C16.8833 4.91667 16.3958 5.40417 16.0375 6.0125C15.6792 6.62083 15.5 7.28333 15.5 8C15.5 8.71667 15.6792 9.37917 16.0375 9.9875C16.3958 10.5958 16.8833 11.0833 17.5 11.45V13.6923C17.5 13.7821 17.4712 13.8558 17.4135 13.9135Z" fill="#F5F5F7"/>
</svg>