<svg xmlns="http://www.w3.org/2000/svg" width="40" height="40" viewBox="0 0 40 40" fill="none">
  <mask id="mask0_2779_19927" style="mask-type:alpha" maskUnits="userSpaceOnUse" x="0" y="0" width="40" height="40">
    <rect width="40" height="40" fill="#D9D9D9"/>
  </mask>
  <g mask="url(#mask0_2779_19927)">
    <path d="M10.1687 36.6667H5.76916C5.08638 36.6667 4.50972 36.4314 4.03916 35.9608C3.56861 35.4903 3.33333 34.9136 3.33333 34.2308V29.8313H4.74374V34.2308C4.74374 34.53 4.83986 34.7757 5.03208 34.9679C5.2243 35.1602 5.47 35.2563 5.76916 35.2563H10.1687V36.6667ZM29.8312 36.6667V35.2563H34.2308C34.53 35.2563 34.7757 35.1602 34.9679 34.9679C35.1601 34.7757 35.2563 34.53 35.2563 34.2308V29.8313H36.6667V34.2308C36.6667 34.9136 36.4314 35.4903 35.9608 35.9608C35.4903 36.4314 34.9136 36.6667 34.2308 36.6667H29.8312ZM19.9962 29.4767C17.0257 29.4767 14.3647 28.6472 12.0133 26.9883C9.66194 25.3295 7.86694 23 6.62833 20C7.86694 16.9958 9.66222 14.6607 12.0142 12.9946C14.3658 11.3288 17.0303 10.4958 20.0075 10.4958C22.9736 10.4958 25.6329 11.3288 27.9854 12.9946C30.3376 14.6607 32.131 16.9958 33.3654 20C32.131 23 30.3368 25.3295 27.9829 26.9883C25.629 28.6472 22.9668 29.4767 19.9962 29.4767ZM19.9829 28.0663C22.5557 28.0663 24.8779 27.3615 26.9496 25.9521C29.0215 24.5424 30.6376 22.5583 31.7979 20C30.6376 17.4417 29.0215 15.4531 26.9496 14.0342C24.8779 12.6153 22.5557 11.9058 19.9829 11.9058C17.4101 11.9058 15.0925 12.6153 13.03 14.0342C10.9672 15.4531 9.34861 17.4417 8.17416 20C9.34861 22.5583 10.9672 24.5424 13.03 25.9521C15.0925 27.3615 17.4101 28.0663 19.9829 28.0663ZM20.0062 24.6817C21.3093 24.6817 22.4154 24.2277 23.3246 23.3196C24.2335 22.4115 24.6879 21.3029 24.6879 19.9938C24.6879 18.6907 24.2342 17.5846 23.3267 16.6754C22.4192 15.7665 21.3112 15.3121 20.0029 15.3121C18.6946 15.3121 17.5868 15.7658 16.6796 16.6733C15.7721 17.5808 15.3183 18.6888 15.3183 19.9971C15.3183 21.3054 15.7724 22.4132 16.6804 23.3204C17.5885 24.2279 18.6971 24.6817 20.0062 24.6817ZM20.005 23.2713C19.0931 23.2713 18.319 22.9532 17.6829 22.3171C17.0468 21.681 16.7287 20.907 16.7287 19.995C16.7287 19.0831 17.0468 18.3096 17.6829 17.6746C18.319 17.0396 19.0931 16.7221 20.005 16.7221C20.9169 16.7221 21.6904 17.0377 22.3254 17.6688C22.9604 18.2999 23.2779 19.0753 23.2779 19.995C23.2779 20.907 22.9624 21.681 22.3312 22.3171C21.7001 22.9532 20.9247 23.2713 20.005 23.2713ZM3.33333 10.1688V5.76918C3.33333 5.0864 3.56861 4.50973 4.03916 4.03918C4.50972 3.56862 5.08638 3.33334 5.76916 3.33334H10.1687V4.74376H5.76916C5.47 4.74376 5.2243 4.83987 5.03208 5.03209C4.83986 5.22432 4.74374 5.47001 4.74374 5.76918V10.1688H3.33333ZM35.2563 10.1688V5.76918C35.2563 5.47001 35.1601 5.22432 34.9679 5.03209C34.7757 4.83987 34.53 4.74376 34.2308 4.74376H29.8312V3.33334H34.2308C34.9136 3.33334 35.4903 3.56862 35.9608 4.03918C36.4314 4.50973 36.6667 5.0864 36.6667 5.76918V10.1688H35.2563Z" fill="#2D2D2D"/>
  </g>
</svg>