<svg xmlns="http://www.w3.org/2000/svg" width="24" height="25" viewBox="0 0 24 25" fill="none">
  <mask id="mask0_2284_4988" style="mask-type:alpha" maskUnits="userSpaceOnUse" x="0" y="0" width="24" height="25">
    <rect y="0.5" width="24" height="24" fill="#f5f5f7"/>
  </mask>
  <g mask="url(#mask0_2284_4988)">
    <path d="M12 20.8267L10.8963 19.8344C9.23858 18.3306 7.86775 17.0383 6.78375 15.9577C5.69975 14.8768 4.84075 13.9149 4.20675 13.0719C3.57275 12.2291 3.12983 11.4602 2.878 10.7652C2.626 10.0703 2.5 9.36524 2.5 8.6499C2.5 7.23074 2.9785 6.04257 3.9355 5.0854C4.89267 4.1284 6.08083 3.6499 7.5 3.6499C8.373 3.6499 9.198 3.85407 9.975 4.2624C10.752 4.67074 11.427 5.25632 12 6.01915C12.573 5.25632 13.248 4.67074 14.025 4.2624C14.802 3.85407 15.627 3.6499 16.5 3.6499C17.9192 3.6499 19.1073 4.1284 20.0645 5.0854C21.0215 6.04257 21.5 7.23074 21.5 8.6499C21.5 9.36524 21.374 10.0703 21.122 10.7652C20.8702 11.4602 20.4272 12.2291 19.7932 13.0719C19.1592 13.9149 18.3018 14.8768 17.221 15.9577C16.1403 17.0383 14.7679 18.3306 13.1038 19.8344L12 20.8267ZM12 18.7999C13.6 17.3602 14.9167 16.1262 15.95 15.0979C16.9833 14.0697 17.8 13.1765 18.4 12.4182C19 11.6598 19.4167 10.9864 19.65 10.3979C19.8833 9.80957 20 9.2269 20 8.6499C20 7.6499 19.6667 6.81657 19 6.1499C18.3333 5.48324 17.5 5.1499 16.5 5.1499C15.7103 5.1499 14.9805 5.3739 14.3105 5.8219C13.6407 6.27007 13.1102 6.89349 12.7192 7.69215H11.2808C10.8833 6.88699 10.3512 6.26199 9.6845 5.81715C9.01783 5.37232 8.28967 5.1499 7.5 5.1499C6.50633 5.1499 5.67458 5.48324 5.00475 6.1499C4.33492 6.81657 4 7.6499 4 8.6499C4 9.2269 4.11667 9.80957 4.35 10.3979C4.58333 10.9864 5 11.6598 5.6 12.4182C6.2 13.1765 7.01667 14.0682 8.05 15.0932C9.08333 16.1182 10.4 17.3537 12 18.7999Z" fill="#f5f5f7"/>
  </g>
</svg>