<svg xmlns="http://www.w3.org/2000/svg" width="16" height="19" viewBox="0 0 16 19" fill="none">
  <path d="M5.58929 0.853795C5.58929 0.38065 5.23103 0 4.78571 0C4.3404 0 3.98214 0.38065 3.98214 0.853795V2.27679H2.64286C1.46094 2.27679 0.5 3.29778 0.5 4.55357V5.12277V6.83036V15.9375C0.5 17.1933 1.46094 18.2143 2.64286 18.2143H13.3571C14.5391 18.2143 15.5 17.1933 15.5 15.9375V6.83036V5.12277V4.55357C15.5 3.29778 14.5391 2.27679 13.3571 2.27679H12.0179V0.853795C12.0179 0.38065 11.6596 0 11.2143 0C10.769 0 10.4107 0.38065 10.4107 0.853795V2.27679H5.58929V0.853795ZM2.10714 6.83036H13.8929V15.9375C13.8929 16.2506 13.6518 16.5067 13.3571 16.5067H2.64286C2.34821 16.5067 2.10714 16.2506 2.10714 15.9375V6.83036Z" fill="#f5f5f7"/>
</svg>