<svg xmlns="http://www.w3.org/2000/svg" width="24" height="25" viewBox="0 0 24 25" fill="none">
  <mask id="mask0_6483_20611" style="mask-type:alpha" maskUnits="userSpaceOnUse" x="0" y="0" width="24" height="25">
    <rect y="0.214355" width="24" height="24" fill="#D9D9D9"/>
  </mask>
  <g mask="url(#mask0_6483_20611)">
    <path d="M11.9999 12.1127C10.9401 12.1127 10.0413 11.7438 9.30343 11.006C8.5656 10.2681 8.19668 9.36929 8.19668 8.30946C8.19668 7.24979 8.5656 6.35196 9.30343 5.61596C10.0413 4.88012 10.9401 4.51221 11.9999 4.51221C13.0598 4.51221 13.9586 4.88012 14.6964 5.61596C15.4343 6.35196 15.8032 7.24979 15.8032 8.30946C15.8032 9.36929 15.4343 10.2681 14.6964 11.006C13.9586 11.7438 13.0598 12.1127 11.9999 12.1127ZM4.59668 19.7195V17.1042C4.59668 16.6837 4.71118 16.2871 4.94018 15.9145C5.16918 15.5416 5.48418 15.2304 5.88518 14.9807C6.81385 14.4434 7.79685 14.031 8.83418 13.7437C9.87151 13.4564 10.925 13.3127 11.9947 13.3127C13.072 13.3127 14.1312 13.4554 15.1722 13.7407C16.2132 14.026 17.194 14.4374 18.1147 14.9747C18.5157 15.2072 18.8307 15.5135 19.0597 15.8935C19.2887 16.2735 19.4032 16.6769 19.4032 17.1037V19.7195H4.59668ZM6.67168 17.6445H17.3282V17.134C17.3282 17.0516 17.303 16.9767 17.2527 16.9092C17.2022 16.8419 17.1357 16.7895 17.0532 16.752C16.3105 16.3013 15.5118 15.9613 14.6569 15.732C13.8023 15.5025 12.9166 15.3877 11.9999 15.3877C11.0913 15.3877 10.2056 15.5025 9.34293 15.732C8.48026 15.9613 7.68151 16.3013 6.94668 16.752C6.86335 16.8168 6.79668 16.8787 6.74668 16.9377C6.69668 16.9965 6.67168 17.062 6.67168 17.134V17.6445ZM12.0049 10.0377C12.4816 10.0377 12.888 9.86804 13.2242 9.52871C13.5602 9.18921 13.7282 8.78112 13.7282 8.30446C13.7282 7.82779 13.5584 7.42246 13.2189 7.08846C12.8796 6.75429 12.4716 6.58721 11.9949 6.58721C11.5183 6.58721 11.1118 6.75638 10.7757 7.09471C10.4397 7.43304 10.2717 7.83979 10.2717 8.31496C10.2717 8.79163 10.4414 9.19796 10.7809 9.53396C11.1203 9.86979 11.5283 10.0377 12.0049 10.0377Z" fill="#f5f5f7"/>
  </g>
</svg>