<svg xmlns="http://www.w3.org/2000/svg" width="24" height="25" viewBox="0 0 24 25" fill="none">
  <mask id="mask0_2284_4987" style="mask-type:alpha" maskUnits="userSpaceOnUse" x="0" y="0" width="24" height="25">
    <rect y="0.5" width="24" height="24" fill="#e49366"/>
  </mask>
  <g mask="url(#mask0_2284_4987)">
    <path d="M12.0017 12.3652C12.4992 12.3652 12.9245 12.1881 13.2777 11.8338C13.631 11.4794 13.8077 11.0535 13.8077 10.556C13.8077 10.0585 13.6305 9.63308 13.2762 9.27975C12.9218 8.92658 12.4958 8.75 11.9982 8.75C11.5007 8.75 11.0753 8.92717 10.7222 9.2815C10.3688 9.63583 10.1922 10.0618 10.1922 10.5595C10.1922 11.057 10.3693 11.4823 10.7237 11.8355C11.078 12.1887 11.504 12.3652 12.0017 12.3652ZM11.9999 20.0135C13.9562 18.2622 15.4533 16.5823 16.4912 14.974C17.529 13.3657 18.0479 11.957 18.0479 10.748C18.0479 8.925 17.4687 7.42633 16.3104 6.252C15.1521 5.07767 13.7152 4.4905 11.9999 4.4905C10.2846 4.4905 8.84774 5.07767 7.6894 6.252C6.53107 7.42633 5.9519 8.925 5.9519 10.748C5.9519 11.957 6.47082 13.3657 7.50865 14.974C8.54649 16.5823 10.0436 18.2622 11.9999 20.0135ZM11.9999 22.0095C9.48324 19.8288 7.59607 17.7994 6.3384 15.9212C5.08074 14.0429 4.4519 12.3185 4.4519 10.748C4.4519 8.44033 5.19832 6.57208 6.69115 5.14325C8.18415 3.71442 9.95374 3 11.9999 3C14.0461 3 15.8157 3.71442 17.3087 5.14325C18.8015 6.57208 19.5479 8.44033 19.5479 10.748C19.5479 12.3185 18.9191 14.0429 17.6614 15.9212C16.4037 17.7994 14.5166 19.8288 11.9999 22.0095Z" fill="#e49366"/>
  </g>
</svg>