<svg xmlns="http://www.w3.org/2000/svg" width="21" height="25" viewBox="0 0 21 25" fill="none">
  <path fill-rule="evenodd" clip-rule="evenodd" d="M20.1475 8.22426C19.8821 8.30038 19.6052 8.14689 19.5291 7.88145C18.9761 5.95296 17.8268 4.24904 16.2458 3.0139C14.6649 1.77876 12.7336 1.07581 10.7286 1.00579C8.72363 0.935775 6.74795 1.50229 5.08473 2.62415C3.42151 3.746 2.15614 5.3656 1.46998 7.25081C1.37554 7.5103 1.08862 7.64409 0.829127 7.54965C0.569638 7.4552 0.435843 7.16828 0.53029 6.90879C1.28868 4.82513 2.68725 3.03505 4.52554 1.79511C6.36383 0.555164 8.54748 -0.0709866 10.7635 0.00639904C12.9795 0.0837847 15.1142 0.860733 16.8615 2.22589C18.6088 3.59105 19.8791 5.47433 20.4903 7.60581C20.5664 7.87126 20.4129 8.14814 20.1475 8.22426Z" fill="#413C1C"/>
  <path fill-rule="evenodd" clip-rule="evenodd" d="M0.862355 16.2633C1.1278 16.1871 1.40469 16.3406 1.4808 16.6061C2.03379 18.5346 3.1831 20.2385 4.76401 21.4736C6.34492 22.7088 8.27626 23.4117 10.2812 23.4817C12.2862 23.5517 14.2619 22.9852 15.9251 21.8634C17.5883 20.7415 18.8537 19.1219 19.5399 17.2367C19.6343 16.9772 19.9212 16.8434 20.1807 16.9379C20.4402 17.0323 20.574 17.3192 20.4796 17.5787C19.7212 19.6624 18.3226 21.4525 16.4843 22.6924C14.646 23.9324 12.4624 24.5585 10.2463 24.4811C8.03031 24.4037 5.89567 23.6268 4.14834 22.2616C2.40102 20.8965 1.13074 19.0132 0.519543 16.8817C0.443428 16.6163 0.59691 16.3394 0.862355 16.2633Z" fill="#413C1C"/>
</svg>