<?xml version="1.0" encoding="UTF-8"?>
<svg id="OBJECTS" xmlns="http://www.w3.org/2000/svg" viewBox="0 0 178.69 158.67">
  <defs>
    <style>
      .cls-1 {
        fill: #f5f5f7;
        stroke-width: 0px;
      }
    </style>
  </defs>
  <path class="cls-1" d="m168.86,82.14c.63.15,1.58.16,2.77-.49,1.27-.71,2.39-1.77,3.35-2.98.96-1.21,1.65-2.58,2.24-3.86.61-1.28.89-2.48,1.14-3.35.23-.88.33-1.43.33-1.43,0,0-1.07.64-2.45,1.54-1.4.9-3.01,2.04-4.31,3.13-1.08.92-1.85,1.8-2.41,2.62-.37.54-.66,1.04-.9,1.51.11-1.63.18-3.27.18-4.93,0-2.37-.12-4.71-.34-7.04.14.03.3.06.49.06.65.02,1.57-.15,2.6-1.03,1.12-.95,2.03-2.21,2.75-3.59.64-1.37,1.08-2.86,1.39-4.23.15-.69.27-1.35.36-1.95.07-.6.1-1.13.12-1.58.04-.9.02-1.46.02-1.46,0,0-.91.84-2.07,2-.58.58-1.21,1.23-1.85,1.91-.65.68-1.28,1.37-1.79,2.04-1.46,1.85-2.06,3.43-2.39,4.7-.55-3.98-1.42-7.9-2.58-11.7.16,0,.33,0,.53-.04.64-.11,1.5-.47,2.34-1.53.9-1.15,1.52-2.57,1.94-4.07.42-1.5.49-3.02.52-4.43,0-1.4-.05-2.68-.23-3.56-.15-.89-.28-1.43-.28-1.43,0,0-.72,1.01-1.62,2.38-.87,1.35-2.05,3.11-2.78,4.6-.62,1.27-.98,2.38-1.16,3.35-.13.64-.21,1.23-.24,1.76-1.33-3.78-2.96-7.45-4.88-10.96.16-.03.33-.07.53-.14.61-.24,1.38-.76,1.98-1.97.65-1.31.97-2.82,1.07-4.37.03-.39.04-.77.04-1.16-.02-.38-.05-.75-.08-1.12-.08-.74-.19-1.47-.33-2.16-.5-2.79-1.5-4.79-1.5-4.79,0,0-.5,1.13-1.11,2.65-.59,1.51-1.4,3.46-1.8,5.07-.35,1.36-.47,2.52-.46,3.51-.01.67.03,1.25.11,1.77-2.06-3.43-4.38-6.69-6.96-9.76.14-.06.3-.13.48-.24.55-.36,1.2-1.02,1.54-2.32.75-2.81.06-6.23-1.08-8.77-.55-1.28-1.11-2.44-1.6-3.19-.49-.76-.82-1.2-.82-1.2,0,0-.27,1.21-.56,2.82-.28,1.6-.68,3.67-.75,5.33-.07,1.4.04,2.57.25,3.53.11.64.27,1.19.44,1.67-2.68-2.92-5.6-5.65-8.75-8.13.13-.08.27-.19.41-.33.47-.46.97-1.24,1.05-2.58.16-2.9-1.18-6.12-2.81-8.38-.79-1.15-1.58-2.16-2.21-2.81-.63-.64-1.05-1.01-1.05-1.01,0,0-.02,1.24.02,2.87.04,1.64.07,3.74.33,5.37.21,1.39.56,2.5.95,3.41.23.59.49,1.09.75,1.52-2.14-1.55-4.38-3-6.71-4.33.04-.66-.13-1.69-1.17-2.85-3.88-4.28-11.59-4.93-11.59-4.93,0,0,2.73,3.97,5.19,6.09,3.3,2.84,6.05,2.7,7.03,2.53,2.35,1.34,4.61,2.81,6.78,4.38-.51-.14-1.09-.24-1.75-.27-.98,0-2.13.16-3.41.59-1.53.51-3.21,1.43-4.53,2.31-1.32.88-2.24,1.62-2.24,1.62,0,0,.42.09,1.13.18.71.1,1.66.28,2.82.36,2.33.11,5.23.23,7.94-.8,1.25-.47,1.91-1.14,2.25-1.69.11-.17.17-.33.22-.47,3.12,2.47,6.02,5.17,8.68,8.08-.47-.23-1.01-.44-1.64-.6-.97-.19-2.12-.27-3.46-.1-1.6.2-3.43.75-4.9,1.36-1.47.59-2.52,1.14-2.52,1.14,0,0,.39.17,1.07.41.69.22,1.57.61,2.69.92,2.26.58,5.08,1.27,7.94.81,1.32-.21,2.1-.73,2.54-1.21.14-.15.23-.28.31-.41,2.54,3.02,4.83,6.23,6.86,9.61-.4-.31-.87-.62-1.45-.88-.91-.38-2.03-.69-3.37-.8-1.61-.12-3.5.05-5.08.35-1.56.29-2.7.61-2.7.61,0,0,1.42.95,3.42,2.05.51.27,1.07.53,1.67.79.3.13.61.25.92.37.3.13.61.25.93.37,1.27.46,2.66.8,4.1.86,1.33.05,2.2-.29,2.73-.67.16-.11.28-.22.38-.33,1.88,3.45,3.48,7.05,4.79,10.77-.32-.38-.72-.78-1.24-1.14-.81-.56-1.84-1.08-3.13-1.46-1.54-.44-3.43-.66-5.05-.67-1.58-.03-2.76.06-2.76.06,0,0,.29.31.82.8.56.47,1.22,1.17,2.12,1.89.87.73,2,1.48,3.14,2.19,1.14.71,2.44,1.32,3.83,1.67,1.29.32,2.21.16,2.81-.11.18-.08.32-.17.45-.25,1.15,3.75,2,7.61,2.54,11.54-.63-1.12-1.84-2.4-3.78-3.45-.7-.37-1.51-.71-2.34-.99-.84-.28-1.72-.51-2.48-.68-1.54-.35-2.71-.51-2.71-.51,0,0,.22.37.63.95.22.29.47.63.76,1.02.27.39.58.82.94,1.26.71.89,1.61,1.87,2.65,2.78.97.92,2.1,1.79,3.39,2.41,1.19.58,2.13.6,2.76.46.21-.05.38-.11.52-.18.22,2.3.34,4.63.34,6.97,0,1.63-.07,3.25-.18,4.86-.15-.49-.36-1.01-.71-1.56-.52-.84-1.25-1.72-2.28-2.57-1.19-1.02-3.02-1.96-4.43-2.61-1.43-.66-2.54-1.04-2.54-1.04,0,0,.14.4.42,1.06.26.65.76,1.56,1.25,2.58.51,1.02,1.22,2.16,2.01,3.26.78,1.1,1.74,2.17,2.9,3.04,1.05.8,1.95,1.01,2.6,1,.2,0,.37-.03.52-.06-.43,3.96-1.18,7.83-2.21,11.58-.05-.5-.16-1.05-.38-1.64-.34-.92-.88-1.93-1.72-2.98-.98-1.24-2.55-2.51-3.8-3.43-1.26-.92-2.27-1.52-2.27-1.52,0,0,.05.42.18,1.11.12.69.4,1.67.69,2.77.29,1.1.77,2.35,1.31,3.59.55,1.23,1.27,2.48,2.23,3.56.85.99,1.7,1.38,2.34,1.5.19.04.36.05.51.05-1.21,3.76-2.72,7.39-4.49,10.87.04-.5.04-1.04-.03-1.65-.15-.97-.48-2.08-1.09-3.27-.71-1.41-1.97-2.97-3.02-4.13-1.05-1.16-1.92-1.95-1.92-1.95,0,0-.04.42-.04,1.13,0,.71.05,1.72.11,2.85.21,2.3.61,5.21,2.02,7.72.64,1.15,1.39,1.7,1.99,1.94.18.07.33.11.48.15-1.93,3.42-4.12,6.67-6.55,9.72.35-1.23.5-2.9-.12-5.02-.43-1.54-1.3-3.29-2.12-4.65-.8-1.35-1.49-2.3-1.49-2.3,0,0-.12.41-.26,1.11-.13.71-.32,1.68-.47,2.81-.07.57-.13,1.19-.15,1.84-.05.63-.08,1.3-.06,1.98.04,1.37.22,2.8.64,4.15.4,1.26,1.03,1.95,1.57,2.31.16.1.3.18.43.23-2.56,2.96-5.35,5.71-8.35,8.23.22-.44.42-.95.59-1.53.26-.93.41-2.06.29-3.42-.13-1.61-.62-3.48-1.14-4.97-.52-1.49-1.01-2.56-1.01-2.56,0,0-.19.38-.47,1.04-.27.67-.67,1.55-1.03,2.66-.72,2.19-1.47,5.05-1.18,7.88.15,1.32.62,2.12,1.08,2.58.13.13.26.23.37.31-3.1,2.39-6.39,4.54-9.85,6.42.31-.39.62-.85.9-1.41.43-.88.81-1.94.97-3.29.19-1.61.07-3.57-.13-5.11-.2-1.55-.48-2.71-.48-2.71,0,0-.26.35-.66.93-.41.57-.97,1.39-1.53,2.41-.58,1-1.2,2.13-1.69,3.43-.5,1.27-.92,2.61-1.04,4.05-.12,1.33.19,2.21.55,2.75.1.16.21.28.31.39-3.51,1.71-7.17,3.15-10.96,4.29,1-.81,2.07-2.16,2.79-4.22.52-1.52.78-3.49.89-5.04.06-.78.08-1.46.09-1.94,0-.49,0-.79,0-.79,0,0-.32.29-.84.75-.52.47-1.22,1.19-1.98,2.06-.77.83-1.6,1.86-2.34,3.02-.76,1.11-1.43,2.38-1.84,3.76-.38,1.29-.27,2.18-.02,2.8.07.19.15.33.23.46-3.77.97-7.66,1.63-11.63,1.99,1.15-.58,2.47-1.69,3.61-3.59.82-1.36,1.47-3.26,1.89-4.76.43-1.5.64-2.65.64-2.65,0,0-.38.19-.98.56-.61.36-1.43.95-2.36,1.62-.93.66-1.94,1.52-2.91,2.48-.97.94-1.88,2.05-2.56,3.32-.63,1.18-.7,2.08-.59,2.73.03.2.09.36.14.51-1.19.06-2.39.09-3.59.09-.14,0-2.26.04-4.54,1.3-2.28-1.26-4.4-1.3-4.54-1.3-1.2,0-2.4-.03-3.59-.09.05-.14.11-.31.14-.51.11-.65.04-1.55-.59-2.73-.68-1.27-1.59-2.38-2.56-3.32-.97-.96-1.98-1.82-2.91-2.48-.93-.67-1.75-1.26-2.36-1.62-.6-.37-.98-.56-.98-.56,0,0,.21,1.15.64,2.65.43,1.49,1.08,3.39,1.89,4.76,1.14,1.9,2.46,3,3.61,3.59-3.97-.36-7.86-1.02-11.63-1.99.08-.13.16-.27.23-.46.24-.61.36-1.51-.02-2.8-.41-1.38-1.08-2.65-1.84-3.76-.75-1.15-1.57-2.18-2.34-3.02-.76-.87-1.46-1.59-1.98-2.06-.52-.47-.84-.75-.84-.75,0,0,0,.3,0,.79,0,.49.03,1.16.09,1.94.11,1.55.38,3.52.89,5.04.73,2.06,1.79,3.42,2.79,4.22-3.79-1.15-7.45-2.58-10.96-4.29.1-.11.21-.23.31-.39.36-.54.66-1.43.55-2.75-.12-1.44-.54-2.79-1.04-4.05-.49-1.29-1.11-2.43-1.69-3.43-.57-1.02-1.12-1.84-1.53-2.41-.41-.58-.66-.93-.66-.93,0,0-.28,1.17-.48,2.71-.2,1.54-.32,3.5-.13,5.11.16,1.35.54,2.4.97,3.29.28.56.58,1.02.9,1.41-3.46-1.88-6.75-4.03-9.85-6.42.12-.08.24-.18.37-.31.46-.46.94-1.27,1.08-2.58.3-2.83-.46-5.7-1.18-7.88-.35-1.11-.76-1.99-1.03-2.66-.27-.66-.47-1.04-.47-1.04,0,0-.49,1.07-1.01,2.56-.53,1.49-1.01,3.36-1.14,4.97-.12,1.36.03,2.49.29,3.42.16.58.37,1.09.59,1.53-3-2.52-5.78-5.27-8.35-8.23.13-.06.27-.13.43-.23.54-.36,1.17-1.05,1.57-2.31.42-1.35.6-2.78.64-4.15.02-.68-.01-1.35-.06-1.98-.03-.65-.08-1.27-.15-1.84-.15-1.14-.34-2.11-.47-2.81-.14-.7-.26-1.11-.26-1.11,0,0-.69.95-1.49,2.3-.82,1.36-1.69,3.11-2.12,4.65-.62,2.12-.47,3.79-.12,5.02-2.43-3.06-4.62-6.3-6.55-9.72.14-.03.3-.07.48-.15.6-.25,1.36-.8,1.99-1.94,1.41-2.5,1.81-5.42,2.02-7.72.06-1.13.12-2.14.11-2.85,0-.71-.04-1.13-.04-1.13,0,0-.86.79-1.92,1.95-1.05,1.16-2.31,2.72-3.02,4.13-.61,1.19-.95,2.3-1.09,3.27-.07.61-.07,1.15-.03,1.65-1.77-3.48-3.28-7.1-4.49-10.87.15,0,.32,0,.51-.05.64-.12,1.49-.51,2.34-1.5.96-1.08,1.68-2.33,2.23-3.56.54-1.23,1.02-2.49,1.31-3.59.29-1.1.57-2.08.69-2.77.14-.69.18-1.11.18-1.11,0,0-1,.6-2.27,1.52-1.25.92-2.82,2.2-3.8,3.43-.84,1.04-1.38,2.06-1.72,2.98-.22.6-.32,1.14-.38,1.64-1.03-3.75-1.78-7.62-2.21-11.58.15.03.32.06.52.06.66.01,1.55-.2,2.6-1,1.15-.87,2.11-1.94,2.9-3.04.79-1.1,1.5-2.24,2.01-3.26.49-1.02.99-1.93,1.25-2.58.28-.65.42-1.06.42-1.06,0,0-1.11.39-2.54,1.04-1.41.65-3.23,1.59-4.43,2.61-1.03.86-1.76,1.74-2.28,2.57-.35.55-.56,1.07-.71,1.56-.1-1.61-.18-3.22-.18-4.86,0-2.34.12-4.67.34-6.97.14.07.31.13.52.18.63.14,1.57.12,2.76-.46,1.29-.62,2.42-1.49,3.39-2.41,1.04-.91,1.94-1.89,2.65-2.78.36-.45.67-.87.94-1.26.29-.39.55-.73.76-1.02.42-.58.63-.95.63-.95,0,0-1.17.15-2.71.51-.77.18-1.65.4-2.48.68-.82.28-1.64.62-2.34.99-1.95,1.05-3.16,2.33-3.78,3.45.54-3.93,1.4-7.79,2.54-11.54.12.09.26.17.45.25.59.27,1.51.43,2.81.11,1.4-.35,2.69-.96,3.83-1.67,1.14-.71,2.27-1.46,3.14-2.19.9-.72,1.56-1.42,2.12-1.89.53-.48.82-.8.82-.8,0,0-1.18-.09-2.76-.06-1.61.02-3.5.23-5.05.67-1.29.38-2.32.9-3.13,1.46-.53.37-.92.76-1.24,1.14,1.31-3.72,2.91-7.32,4.79-10.77.1.11.22.22.38.33.53.38,1.4.73,2.73.67,1.44-.06,2.83-.4,4.1-.86.32-.12.63-.24.93-.37.32-.12.63-.24.92-.37.6-.25,1.16-.52,1.67-.79,2-1.09,3.42-2.05,3.42-2.05,0,0-1.14-.32-2.7-.61-1.58-.3-3.47-.47-5.08-.35-1.34.11-2.46.41-3.37.8-.57.27-1.04.57-1.45.88,2.02-3.37,4.32-6.59,6.86-9.61.08.13.17.26.31.41.44.48,1.22.99,2.54,1.21,2.86.46,5.68-.23,7.94-.81,1.12-.31,2-.69,2.69-.92.68-.24,1.07-.41,1.07-.41,0,0-1.05-.54-2.52-1.14-1.47-.6-3.3-1.15-4.9-1.36-1.34-.16-2.49-.09-3.46.1-.63.16-1.17.37-1.64.6,2.66-2.91,5.56-5.61,8.68-8.08.05.14.12.3.22.47.33.56,1,1.22,2.25,1.69,2.71,1.03,5.61.91,7.94.8,1.15-.08,2.11-.27,2.82-.36.71-.09,1.13-.18,1.13-.18,0,0-.92-.74-2.24-1.62-1.32-.87-3-1.79-4.53-2.31-1.28-.43-2.43-.59-3.41-.59-.66.03-1.24.13-1.75.27,2.17-1.57,4.43-3.04,6.78-4.38.98.17,3.72.31,7.03-2.53,2.46-2.11,5.19-6.09,5.19-6.09,0,0-7.72.66-11.59,4.93-1.05,1.16-1.22,2.19-1.17,2.85-2.33,1.33-4.56,2.78-6.71,4.33.26-.43.52-.93.75-1.52.39-.91.74-2.02.95-3.41.26-1.64.29-3.74.33-5.37.04-1.63.02-2.87.02-2.87,0,0-.42.37-1.05,1.01-.63.65-1.41,1.66-2.21,2.81-1.63,2.26-2.98,5.48-2.81,8.38.08,1.35.58,2.13,1.05,2.58.15.14.28.25.41.33-3.14,2.49-6.07,5.21-8.75,8.13.17-.48.33-1.03.44-1.67.21-.96.32-2.12.25-3.53-.08-1.65-.47-3.73-.75-5.33-.29-1.61-.56-2.82-.56-2.82,0,0-.33.45-.82,1.2-.5.75-1.05,1.9-1.6,3.19-1.14,2.54-1.83,5.96-1.08,8.77.34,1.3.99,1.97,1.54,2.32.18.11.33.19.48.24-2.58,3.07-4.91,6.33-6.96,9.76.08-.52.12-1.1.11-1.77.01-.98-.11-2.15-.46-3.51-.4-1.6-1.21-3.56-1.8-5.07-.6-1.52-1.11-2.65-1.11-2.65,0,0-1,2-1.5,4.79-.13.69-.25,1.42-.33,2.16-.04.37-.07.75-.08,1.12,0,.39.01.78.04,1.16.1,1.55.42,3.06,1.07,4.37.6,1.21,1.37,1.73,1.98,1.97.2.08.37.12.53.14-1.91,3.51-3.54,7.18-4.88,10.96-.03-.53-.12-1.11-.24-1.76-.19-.97-.55-2.08-1.16-3.35-.72-1.49-1.91-3.25-2.78-4.6-.9-1.37-1.62-2.38-1.62-2.38,0,0-.13.54-.28,1.43-.18.88-.24,2.16-.23,3.56.03,1.41.1,2.93.52,4.43.42,1.5,1.04,2.91,1.94,4.07.83,1.06,1.69,1.42,2.34,1.53.21.03.38.04.53.04-1.16,3.8-2.03,7.71-2.58,11.7-.33-1.27-.93-2.85-2.39-4.7-.51-.66-1.14-1.36-1.79-2.04-.64-.68-1.26-1.33-1.85-1.91-1.16-1.16-2.07-2-2.07-2,0,0-.02.56.02,1.46.02.45.05.99.12,1.58.09.6.21,1.26.36,1.95.31,1.37.75,2.86,1.39,4.23.72,1.38,1.62,2.65,2.75,3.59,1.04.87,1.95,1.05,2.6,1.03.19,0,.35-.03.49-.06-.22,2.33-.34,4.68-.34,7.04,0,1.66.07,3.3.18,4.93-.23-.47-.53-.97-.9-1.51-.56-.82-1.34-1.7-2.41-2.62-1.3-1.09-2.92-2.23-4.31-3.13-1.38-.9-2.45-1.54-2.45-1.54,0,0,.1.55.33,1.43.25.87.53,2.07,1.14,3.35.59,1.28,1.29,2.65,2.24,3.86.96,1.21,2.08,2.27,3.35,2.98,1.19.65,2.14.64,2.77.49.2-.05.36-.11.49-.17.43,4.04,1.2,7.97,2.25,11.79-.32-.42-.72-.86-1.2-1.32-.71-.69-1.65-1.4-2.89-2.08-1.48-.81-3.32-1.6-4.87-2.21-1.54-.61-2.72-1.02-2.72-1.02,0,0,.21.52.62,1.33.42.81.97,1.92,1.81,3.06.84,1.14,1.79,2.34,2.97,3.34,1.18,1,2.49,1.81,3.88,2.25,1.32.39,2.23.19,2.82-.08.19-.09.34-.19.46-.28,1.24,3.85,2.78,7.57,4.6,11.12-.4-.35-.88-.72-1.48-1.07-.84-.53-1.89-1.04-3.24-1.46-1.62-.49-3.6-.89-5.22-1.18-1.62-.29-2.87-.46-2.87-.46,0,0,.31.47.87,1.18.56.71,1.34,1.69,2.4,2.63,2.03,1.94,4.93,3.81,7.84,4.08,1.37.12,2.22-.26,2.74-.65.17-.13.3-.26.4-.38,1.98,3.52,4.24,6.86,6.75,10-1.13-.67-2.8-1.28-5.14-1.55-1.66-.17-3.73-.13-5.36-.1-1.64.04-2.89.13-2.89.13,0,0,.4.4,1.08.99.67.6,1.68,1.36,2.88,2.09.6.37,1.24.73,1.91,1.06.69.32,1.41.6,2.14.83,1.46.47,2.98.7,4.46.53,1.36-.15,2.12-.69,2.55-1.18.15-.17.25-.32.33-.46,2.64,3.04,5.51,5.88,8.6,8.46-.51-.18-1.09-.34-1.78-.44-.99-.14-2.18-.17-3.56-.06-1.64.15-3.68.62-5.27.98-1.6.37-2.8.69-2.8.69,0,0,.46.31,1.25.76.78.45,1.94.97,3.24,1.47,2.63.97,6.01,1.59,8.82.67,1.29-.41,1.93-1.09,2.26-1.66.11-.19.18-.36.23-.51,3.18,2.44,6.54,4.65,10.09,6.57-.53-.06-1.12-.1-1.8-.07-.99.04-2.17.27-3.51.66-1.58.47-3.46,1.31-4.97,2.01-1.5.7-2.6,1.24-2.6,1.24,0,0,.51.23,1.38.49.87.26,2.1.57,3.47.8,1.39.21,2.96.28,4.47.15,1.53-.15,3.04-.57,4.31-1.27,1.18-.66,1.67-1.45,1.88-2.07.07-.21.1-.38.12-.54,3.58,1.75,7.32,3.21,11.2,4.38-1.31.12-2.99.5-5.07,1.66-1.46.79-3.12,1.97-4.46,2.95-.66.5-1.24.94-1.66,1.25-.41.31-.65.5-.65.5,0,0,.14.02.38.07.25.03.62.08,1.07.12.91.08,2.16.16,3.56.1,1.41-.1,2.95-.31,4.41-.75,1.47-.48,2.86-1.16,3.97-2.11,1.02-.87,1.35-1.78,1.42-2.41.02-.21.02-.38,0-.53,3.83.98,7.78,1.65,11.82,2.02-1.25.38-2.81,1.1-4.6,2.64-1.27,1.09-2.66,2.56-3.77,3.8-1.11,1.23-1.91,2.2-1.91,2.2,0,0,.56-.02,1.47-.12.91-.11,2.14-.25,3.5-.63,1.36-.38,2.82-.88,4.16-1.62,1.35-.76,2.57-1.71,3.46-2.86.83-1.06.96-2.02.91-2.65-.02-.2-.05-.37-.1-.51,1.2.06,2.42.09,3.63.09.12,0,1.72.03,3.57.92-1.14.82-2.26,1.98-3.12,3.64-.65,1.24-1.24,2.94-1.75,5.05l.97.24c.5-2.03,1.06-3.66,1.67-4.83.88-1.69,2.05-2.81,3.21-3.55,1.16.74,2.33,1.86,3.21,3.55.61,1.17,1.17,2.8,1.67,4.83l.97-.24c-.51-2.11-1.1-3.81-1.75-5.05-.86-1.66-1.98-2.82-3.12-3.64,1.84-.88,3.45-.92,3.57-.92,1.22,0,2.43-.03,3.63-.09-.04.15-.08.31-.1.51-.05.64.08,1.59.91,2.65.89,1.15,2.11,2.1,3.46,2.86,1.34.74,2.8,1.24,4.16,1.62,1.36.37,2.6.51,3.5.63.9.1,1.47.12,1.47.12,0,0-.8-.97-1.91-2.2-1.11-1.24-2.5-2.7-3.77-3.8-1.79-1.54-3.35-2.25-4.6-2.64,4.04-.36,7.99-1.03,11.82-2.02-.01.15-.02.33,0,.53.08.64.4,1.54,1.42,2.41,1.11.95,2.49,1.63,3.97,2.11,1.46.44,3,.65,4.41.75,1.4.07,2.65-.02,3.56-.1.45-.04.82-.08,1.07-.12.25-.05.38-.07.38-.07,0,0-.24-.19-.65-.5-.42-.31-1-.75-1.66-1.25-1.34-.99-3-2.16-4.46-2.95-2.08-1.16-3.76-1.54-5.07-1.66,3.87-1.17,7.61-2.63,11.2-4.38.02.16.05.33.12.54.21.62.7,1.41,1.88,2.07,1.28.71,2.79,1.12,4.31,1.27,1.51.12,3.08.06,4.47-.15,1.37-.23,2.59-.54,3.47-.8.87-.26,1.38-.49,1.38-.49,0,0-1.1-.54-2.6-1.24-1.51-.7-3.39-1.54-4.97-2.01-1.34-.4-2.52-.62-3.51-.66-.68-.03-1.27,0-1.8.07,3.55-1.92,6.92-4.12,10.09-6.57.05.15.12.32.23.51.33.56.97,1.24,2.26,1.66,2.81.92,6.19.31,8.82-.67,1.3-.5,2.46-1.02,3.24-1.47.78-.45,1.25-.76,1.25-.76,0,0-1.2-.33-2.8-.69-1.6-.36-3.63-.84-5.27-.98-1.38-.11-2.57-.08-3.56.06-.69.1-1.27.26-1.78.44,3.09-2.58,5.96-5.42,8.6-8.46.08.14.18.29.33.46.43.49,1.19,1.03,2.55,1.18,1.48.17,3-.06,4.46-.53.73-.23,1.45-.51,2.14-.83.67-.33,1.31-.69,1.91-1.06,1.2-.73,2.21-1.49,2.88-2.09.69-.59,1.08-.99,1.08-.99,0,0-1.25-.08-2.89-.13-1.63-.03-3.7-.07-5.36.1-2.34.27-4.01.88-5.14,1.55,2.51-3.14,4.77-6.48,6.75-10,.1.12.23.25.4.38.52.39,1.38.77,2.74.65,2.92-.27,5.82-2.14,7.84-4.08,1.05-.95,1.83-1.92,2.4-2.63.56-.72.87-1.18.87-1.18,0,0-1.24.17-2.87.46-1.63.29-3.61.68-5.22,1.18-1.35.42-2.4.93-3.24,1.46-.59.35-1.08.71-1.48,1.07,1.82-3.56,3.36-7.27,4.6-11.12.12.09.27.19.46.28.59.27,1.5.47,2.82.08,1.39-.44,2.7-1.25,3.88-2.25,1.19-1,2.14-2.2,2.97-3.34.84-1.14,1.39-2.25,1.81-3.06.41-.81.62-1.33.62-1.33,0,0-1.18.42-2.72,1.02-1.55.61-3.39,1.4-4.87,2.21-1.24.69-2.18,1.4-2.89,2.08-.48.46-.88.9-1.2,1.32,1.05-3.82,1.82-7.75,2.25-11.79.14.06.3.13.49.17Z"/>
</svg>