<svg xmlns="http://www.w3.org/2000/svg" width="24" height="24" viewBox="0 0 24 24" fill="none">
  <mask id="mask0_5188_1946" style="mask-type:alpha" maskUnits="userSpaceOnUse" x="0" y="0" width="24" height="24">
    <rect width="24" height="24" fill="#D9D9D9"/>
  </mask>
  <g mask="url(#mask0_5188_1946)">
    <path d="M9.4615 12.6538H11.1537V10.2885H12.8462V12.6538H14.5385V8.59625L12 6.90375L9.4615 8.59625V12.6538ZM12 19.677C13.8795 18.041 15.3654 16.3772 16.4577 14.6855C17.5501 12.9938 18.0962 11.5307 18.0962 10.2962C18.0962 8.46675 17.5171 6.95675 16.3587 5.76625C15.2004 4.57592 13.7475 3.98075 12 3.98075C10.2525 3.98075 8.79958 4.57592 7.64125 5.76625C6.48291 6.95675 5.90375 8.46675 5.90375 10.2962C5.90375 11.5307 6.44991 12.9938 7.54225 14.6855C8.63458 16.3772 10.1205 18.041 12 19.677ZM12 21.0193C9.65 18.9411 7.87983 17.0029 6.6895 15.2048C5.499 13.4067 4.90375 11.7706 4.90375 10.2962C4.90375 8.18075 5.59258 6.43583 6.97025 5.0615C8.34775 3.68717 10.0243 3 12 3C13.9757 3 15.6522 3.68717 17.0297 5.0615C18.4074 6.43583 19.0962 8.18075 19.0962 10.2962C19.0962 11.7706 18.501 13.4067 17.3105 15.2048C16.1202 17.0029 14.35 18.9411 12 21.0193Z" fill="#8F8E93"/>
  </g>
</svg>