<svg xmlns="http://www.w3.org/2000/svg" width="48" height="48" viewBox="0 0 48 48" fill="none">
  <mask id="mask0_5252_5516" style="mask-type:alpha" maskUnits="userSpaceOnUse" x="0" y="0" width="48" height="48">
    <rect width="48" height="48" fill="#D9D9D9"/>
  </mask>
  <g mask="url(#mask0_5252_5516)">
    <path d="M16.577 33.023L24 25.6L31.423 33.023L33.023 31.423L25.6 24L33.023 16.577L31.423 14.977L24 22.4L16.577 14.977L14.977 16.577L22.4 24L14.977 31.423L16.577 33.023ZM24.0035 43C21.3962 43 18.9395 42.5013 16.6335 41.504C14.3275 40.5067 12.311 39.1448 10.584 37.4185C8.857 35.6922 7.4945 33.6765 6.4965 31.3715C5.49883 29.0668 5 26.6108 5 24.0035C5 21.3755 5.49867 18.9053 6.496 16.593C7.49333 14.2807 8.85517 12.2693 10.5815 10.559C12.3078 8.84867 14.3235 7.4945 16.6285 6.4965C18.9332 5.49883 21.3892 5 23.9965 5C26.6245 5 29.0947 5.49867 31.407 6.496C33.7193 7.49333 35.7307 8.84683 37.441 10.5565C39.1513 12.2662 40.5055 14.2767 41.5035 16.588C42.5012 18.8993 43 21.3688 43 23.9965C43 26.6038 42.5013 29.0605 41.504 31.3665C40.5067 33.6725 39.1532 35.689 37.4435 37.416C35.7338 39.143 33.7233 40.5055 31.412 41.5035C29.1007 42.5012 26.6312 43 24.0035 43ZM24 40.7305C28.6563 40.7305 32.6088 39.1012 35.8575 35.8425C39.1062 32.5835 40.7305 28.636 40.7305 24C40.7305 19.3437 39.1062 15.3912 35.8575 12.1425C32.6088 8.89383 28.6563 7.2695 24 7.2695C19.364 7.2695 15.4165 8.89383 12.1575 12.1425C8.89883 15.3912 7.2695 19.3437 7.2695 24C7.2695 28.636 8.89883 32.5835 12.1575 35.8425C15.4165 39.1012 19.364 40.7305 24 40.7305Z" fill="#F5F5F7"/>
  </g>
</svg>