<?xml version="1.0" encoding="UTF-8"?>
<svg id="_圖層_1" data-name="圖層_1" xmlns="http://www.w3.org/2000/svg" viewBox="0 0 449 105.89">
  <path d="M449,0H0v3.68c.18-.02.35-.03.53-.03,2.65,0,4.8,2.45,4.8,5.48S3.18,14.61.53,14.61c-.18,0-.36-.01-.53-.03v3.72c.18-.02.35-.03.53-.03,2.65,0,4.8,2.45,4.8,5.48s-2.15,5.48-4.8,5.48c-.18,0-.36-.01-.53-.03v3.68c.12,0,.23,0,.35,0,.06,0,.12,0,.18,0,.2,0,.39.01.58.04,9.2.65,16.48,9.38,16.48,20.04s-7.28,19.39-16.48,20.04c-.19.03-.38.04-.58.04-.06,0-.12,0-.18,0-.12,0-.23,0-.35,0v3.68c.18-.02.35-.03.53-.03,2.65,0,4.8,2.45,4.8,5.48s-2.15,5.48-4.8,5.48c-.18,0-.36-.01-.53-.03v3.72c.18-.02.35-.03.53-.03,2.65,0,4.8,2.45,4.8,5.48s-2.15,5.48-4.8,5.48c-.18,0-.36-.01-.53-.03v3.68h449v-3.65c-2.65,0-4.8-2.45-4.8-5.48s2.15-5.48,4.8-5.48v-3.65c-2.65,0-4.8-2.45-4.8-5.48s2.15-5.48,4.8-5.48v-3.65c-2.65,0-4.8-2.45-4.8-5.48s2.15-5.48,4.8-5.48v-3.65c-2.65,0-4.8-2.45-4.8-5.48s2.15-5.48,4.8-5.48v-3.65c-2.65,0-4.8-2.45-4.8-5.48s2.15-5.48,4.8-5.48v-3.65c-2.65,0-4.8-2.45-4.8-5.48s2.15-5.48,4.8-5.48v-3.65c-2.65,0-4.8-2.45-4.8-5.48s2.15-5.48,4.8-5.48V0Z"/>
</svg>